<mxfile host="Electron" agent="Mozilla/5.0 (Windows NT 10.0; Win64; x64) AppleWebKit/537.36 (KHTML, like Gecko) draw.io/26.0.4 Chrome/128.0.6613.186 Electron/32.2.5 Safari/537.36" version="26.0.4">
  <diagram name="Seite-1" id="bXjDITTMxru2W0Pr4Kpk">
    <mxGraphModel dx="956" dy="569" grid="1" gridSize="10" guides="1" tooltips="1" connect="1" arrows="1" fold="1" page="1" pageScale="1" pageWidth="827" pageHeight="1169" math="0" shadow="0">
      <root>
        <mxCell id="0" />
        <mxCell id="1" parent="0" />
        <mxCell id="toPsAk9bRAn8ij5QF8aS-1" value="Customer" style="shape=umlLifeline;perimeter=lifelinePerimeter;whiteSpace=wrap;html=1;container=1;dropTarget=0;collapsible=0;recursiveResize=0;outlineConnect=0;portConstraint=eastwest;newEdgeStyle={&quot;curved&quot;:0,&quot;rounded&quot;:0};" vertex="1" parent="1">
          <mxGeometry x="280" y="260" width="100" height="300" as="geometry" />
        </mxCell>
        <mxCell id="toPsAk9bRAn8ij5QF8aS-2" value="Employee" style="shape=umlLifeline;perimeter=lifelinePerimeter;whiteSpace=wrap;html=1;container=1;dropTarget=0;collapsible=0;recursiveResize=0;outlineConnect=0;portConstraint=eastwest;newEdgeStyle={&quot;curved&quot;:0,&quot;rounded&quot;:0};" vertex="1" parent="1">
          <mxGeometry x="480" y="260" width="100" height="300" as="geometry" />
        </mxCell>
        <mxCell id="toPsAk9bRAn8ij5QF8aS-3" value="" style="rounded=0;whiteSpace=wrap;html=1;" vertex="1" parent="1">
          <mxGeometry x="325" y="330" width="10" height="210" as="geometry" />
        </mxCell>
        <mxCell id="toPsAk9bRAn8ij5QF8aS-5" value="returnCar(contract)" style="html=1;verticalAlign=bottom;endArrow=block;curved=0;rounded=0;exitX=0.5;exitY=0;exitDx=0;exitDy=0;" edge="1" parent="1" source="toPsAk9bRAn8ij5QF8aS-3" target="toPsAk9bRAn8ij5QF8aS-2">
          <mxGeometry width="80" relative="1" as="geometry">
            <mxPoint x="380" y="340" as="sourcePoint" />
            <mxPoint x="460" y="340" as="targetPoint" />
          </mxGeometry>
        </mxCell>
        <mxCell id="toPsAk9bRAn8ij5QF8aS-6" value="" style="rounded=0;whiteSpace=wrap;html=1;" vertex="1" parent="1">
          <mxGeometry x="525" y="330" width="10" height="210" as="geometry" />
        </mxCell>
        <mxCell id="toPsAk9bRAn8ij5QF8aS-7" value="System" style="shape=umlLifeline;perimeter=lifelinePerimeter;whiteSpace=wrap;html=1;container=1;dropTarget=0;collapsible=0;recursiveResize=0;outlineConnect=0;portConstraint=eastwest;newEdgeStyle={&quot;curved&quot;:0,&quot;rounded&quot;:0};" vertex="1" parent="1">
          <mxGeometry x="800" y="260" width="100" height="300" as="geometry" />
        </mxCell>
        <mxCell id="toPsAk9bRAn8ij5QF8aS-8" value="getContract()" style="html=1;verticalAlign=bottom;endArrow=block;curved=0;rounded=0;exitX=0.5;exitY=0;exitDx=0;exitDy=0;entryX=0.5;entryY=0;entryDx=0;entryDy=0;" edge="1" parent="1" source="toPsAk9bRAn8ij5QF8aS-6" target="toPsAk9bRAn8ij5QF8aS-9">
          <mxGeometry width="80" relative="1" as="geometry">
            <mxPoint x="535" y="330" as="sourcePoint" />
            <mxPoint x="735" y="330" as="targetPoint" />
          </mxGeometry>
        </mxCell>
        <mxCell id="toPsAk9bRAn8ij5QF8aS-9" value="" style="rounded=0;whiteSpace=wrap;html=1;" vertex="1" parent="1">
          <mxGeometry x="845" y="330" width="10" height="210" as="geometry" />
        </mxCell>
        <mxCell id="toPsAk9bRAn8ij5QF8aS-10" value="contractDetails" style="html=1;verticalAlign=bottom;endArrow=none;curved=0;rounded=0;entryX=-0.181;entryY=0.134;entryDx=0;entryDy=0;entryPerimeter=0;startArrow=open;startFill=0;endFill=0;dashed=1;" edge="1" parent="1" source="toPsAk9bRAn8ij5QF8aS-2" target="toPsAk9bRAn8ij5QF8aS-9">
          <mxGeometry width="80" relative="1" as="geometry">
            <mxPoint x="535" y="360" as="sourcePoint" />
            <mxPoint x="720" y="360" as="targetPoint" />
          </mxGeometry>
        </mxCell>
        <mxCell id="toPsAk9bRAn8ij5QF8aS-11" value="Return-Protocol" style="shape=umlLifeline;perimeter=lifelinePerimeter;whiteSpace=wrap;html=1;container=1;dropTarget=0;collapsible=0;recursiveResize=0;outlineConnect=0;portConstraint=eastwest;newEdgeStyle={&quot;curved&quot;:0,&quot;rounded&quot;:0};" vertex="1" parent="1">
          <mxGeometry x="690" y="380" width="80" height="180" as="geometry" />
        </mxCell>
        <mxCell id="toPsAk9bRAn8ij5QF8aS-12" value="" style="rounded=0;whiteSpace=wrap;html=1;" vertex="1" parent="1">
          <mxGeometry x="725" y="440" width="10" height="110" as="geometry" />
        </mxCell>
        <mxCell id="toPsAk9bRAn8ij5QF8aS-13" value="write(vehicle condition, usage-data)" style="html=1;verticalAlign=bottom;endArrow=block;curved=0;rounded=0;exitX=0.5;exitY=0;exitDx=0;exitDy=0;entryX=0;entryY=0;entryDx=0;entryDy=0;" edge="1" parent="1" target="toPsAk9bRAn8ij5QF8aS-12">
          <mxGeometry width="80" relative="1" as="geometry">
            <mxPoint x="535" y="440" as="sourcePoint" />
            <mxPoint x="610" y="440" as="targetPoint" />
          </mxGeometry>
        </mxCell>
        <mxCell id="toPsAk9bRAn8ij5QF8aS-15" value="" style="rounded=0;whiteSpace=wrap;html=1;" vertex="1" parent="1">
          <mxGeometry x="730" y="470" width="10" height="30" as="geometry" />
        </mxCell>
        <mxCell id="toPsAk9bRAn8ij5QF8aS-16" value="&lt;font style=&quot;font-size: 9px;&quot;&gt;createPDF(information)&lt;/font&gt;" style="html=1;verticalAlign=bottom;endArrow=block;curved=0;rounded=0;exitX=0.5;exitY=0;exitDx=0;exitDy=0;entryX=1.047;entryY=0.333;entryDx=0;entryDy=0;entryPerimeter=0;" edge="1" parent="1" source="toPsAk9bRAn8ij5QF8aS-12" target="toPsAk9bRAn8ij5QF8aS-15">
          <mxGeometry x="0.1169" y="30" width="80" relative="1" as="geometry">
            <mxPoint x="620" y="460" as="sourcePoint" />
            <mxPoint x="810" y="460" as="targetPoint" />
            <Array as="points">
              <mxPoint x="760" y="440" />
              <mxPoint x="760" y="480" />
            </Array>
            <mxPoint as="offset" />
          </mxGeometry>
        </mxCell>
        <mxCell id="toPsAk9bRAn8ij5QF8aS-18" value="return return-protocol" style="html=1;verticalAlign=bottom;endArrow=none;curved=0;rounded=0;startArrow=open;startFill=0;endFill=0;dashed=1;exitX=0.983;exitY=0.81;exitDx=0;exitDy=0;exitPerimeter=0;" edge="1" parent="1" source="toPsAk9bRAn8ij5QF8aS-6">
          <mxGeometry width="80" relative="1" as="geometry">
            <mxPoint x="540" y="500" as="sourcePoint" />
            <mxPoint x="730" y="500" as="targetPoint" />
          </mxGeometry>
        </mxCell>
        <mxCell id="toPsAk9bRAn8ij5QF8aS-19" value="return-protocol" style="html=1;verticalAlign=bottom;endArrow=none;curved=0;rounded=0;startArrow=open;startFill=0;endFill=0;dashed=1;exitX=0.983;exitY=0.81;exitDx=0;exitDy=0;exitPerimeter=0;entryX=0.014;entryY=0.807;entryDx=0;entryDy=0;entryPerimeter=0;" edge="1" parent="1" target="toPsAk9bRAn8ij5QF8aS-6">
          <mxGeometry width="80" relative="1" as="geometry">
            <mxPoint x="335" y="500" as="sourcePoint" />
            <mxPoint x="520" y="500" as="targetPoint" />
          </mxGeometry>
        </mxCell>
        <mxCell id="toPsAk9bRAn8ij5QF8aS-20" value="" style="rounded=0;whiteSpace=wrap;html=1;" vertex="1" parent="1">
          <mxGeometry x="330" y="530" width="10" height="10" as="geometry" />
        </mxCell>
        <mxCell id="toPsAk9bRAn8ij5QF8aS-21" value="" style="edgeStyle=elbowEdgeStyle;fontSize=12;html=1;endArrow=blockThin;endFill=1;rounded=0;exitX=1.036;exitY=0.858;exitDx=0;exitDy=0;exitPerimeter=0;entryX=0.945;entryY=0.084;entryDx=0;entryDy=0;entryPerimeter=0;" edge="1" parent="1" source="toPsAk9bRAn8ij5QF8aS-3" target="toPsAk9bRAn8ij5QF8aS-20">
          <mxGeometry width="160" relative="1" as="geometry">
            <mxPoint x="350" y="530" as="sourcePoint" />
            <mxPoint x="510" y="530" as="targetPoint" />
            <Array as="points">
              <mxPoint x="360" y="520" />
            </Array>
          </mxGeometry>
        </mxCell>
        <mxCell id="toPsAk9bRAn8ij5QF8aS-22" value="signReturnProtocol()" style="edgeLabel;html=1;align=center;verticalAlign=middle;resizable=0;points=[];" vertex="1" connectable="0" parent="toPsAk9bRAn8ij5QF8aS-21">
          <mxGeometry x="0.227" relative="1" as="geometry">
            <mxPoint x="54" as="offset" />
          </mxGeometry>
        </mxCell>
        <mxCell id="toPsAk9bRAn8ij5QF8aS-23" value="Sequence-diagram:&lt;div&gt;return&lt;/div&gt;" style="shape=umlFrame;whiteSpace=wrap;html=1;pointerEvents=0;width=120;height=30;" vertex="1" parent="1">
          <mxGeometry x="210" y="210" width="690" height="370" as="geometry" />
        </mxCell>
      </root>
    </mxGraphModel>
  </diagram>
</mxfile>
